<?xml version="1.0" standalone="no"?>
<!DOCTYPE svg PUBLIC "-//W3C//DTD SVG 20010904//EN"
 "http://www.w3.org/TR/2001/REC-SVG-20010904/DTD/svg10.dtd">
<svg version="1.0" xmlns="http://www.w3.org/2000/svg"
 width="16.000000pt" height="16.000000pt" viewBox="0 0 16.000000 16.000000"
 preserveAspectRatio="xMidYMid meet">
<metadata>
Created by potrace 1.11, written by Peter Selinger 2001-2013
</metadata>
<g transform="translate(0.000000,16.000000) scale(0.004520,-0.004520)"
fill="#000000" stroke="none">
<path d="M110 1770 l0 -1650 1660 0 1660 0 0 1650 0 1650 -1660 0 -1660 0 0
-1650z m2750 1120 l0 -190 -750 0 -750 0 0 -370 0 -370 375 0 375 0 0 -190 0
-190 -375 0 -375 0 0 -370 0 -370 750 0 750 0 0 -185 0 -185 -1125 0 -1125 0
0 1305 0 1305 1125 0 1125 0 0 -190z"/>
</g>
</svg>
